<?xml version="1.0" standalone="no"?>
<!DOCTYPE svg PUBLIC "-//W3C//DTD SVG 20010904//EN"
 "http://www.w3.org/TR/2001/REC-SVG-20010904/DTD/svg10.dtd">
<svg version="1.0" xmlns="http://www.w3.org/2000/svg"
 width="573.000000pt" height="573.000000pt" viewBox="0 0 573.000000 573.000000"
 preserveAspectRatio="xMidYMid meet">
<metadata>
Created by potrace 1.11, written by Peter Selinger 2001-2013
</metadata>
<g transform="translate(0.000000,573.000000) scale(0.100000,-0.100000)"
fill="#000000" stroke="none">
<path d="M3042 5599 c-318 -30 -644 -194 -902 -450 -257 -257 -363 -514 -330
-803 10 -92 10 -112 -1 -119 -8 -4 -68 -38 -133 -75 -127 -71 -207 -135 -233
-186 -23 -45 -21 -126 5 -168 23 -36 132 -128 152 -128 7 0 10 -7 6 -16 -4
-10 -14 -58 -22 -108 -22 -126 -15 -350 15 -463 l22 -82 -35 -108 c-56 -174
-79 -288 -71 -342 14 -86 9 -227 -8 -238 -5 -3 -22 -26 -38 -51 -33 -53 -39
-114 -13 -151 15 -21 15 -32 5 -90 -7 -36 -29 -118 -50 -181 -21 -63 -48 -151
-61 -195 -50 -181 -108 -341 -165 -457 -62 -125 -186 -423 -237 -568 -17 -47
-33 -89 -38 -95 -4 -5 -10 -22 -14 -36 -7 -34 5 -39 88 -39 70 0 157 -22 176
-45 21 -26 30 -17 30 30 0 64 53 116 145 144 115 36 151 30 278 -41 l109 -62
-4 -68 c-4 -48 -1 -73 8 -85 7 -10 14 -28 14 -41 0 -23 21 -52 37 -52 4 0 16
-17 25 -38 10 -20 27 -43 38 -50 22 -14 111 -19 129 -8 6 4 9 35 7 71 -1 36 0
65 4 65 3 0 12 20 19 44 13 44 12 46 -17 83 -17 21 -34 55 -37 76 l-7 37 58 0
c33 0 119 -5 191 -12 l133 -11 6 -32 c3 -18 2 -47 -3 -66 -13 -50 7 -103 42
-109 21 -4 30 -14 39 -40 12 -39 53 -64 122 -74 32 -5 46 -2 64 14 22 19 22
23 12 82 -8 51 -7 66 4 79 18 21 18 49 -2 77 -12 18 -13 23 -2 27 50 17 430
27 498 12 14 -3 51 -10 82 -16 85 -15 116 -34 124 -75 7 -42 -1 -71 -33 -114
-30 -40 -23 -53 24 -47 50 6 166 104 200 168 18 35 21 183 5 214 -20 37 -65
328 -65 419 1 231 67 376 355 769 358 490 577 958 620 1326 l11 96 51 10 c157
33 270 133 328 289 29 80 32 314 5 414 -51 183 -164 344 -283 400 -49 24 -64
36 -65 53 0 12 -1 76 -2 142 -2 107 -6 131 -36 215 -73 210 -156 346 -301 490
-226 226 -513 359 -837 390 -118 11 -120 11 -241 -1z m-34 -527 c100 -32 203
-116 244 -201 39 -80 35 -196 -10 -285 -16 -33 -100 -126 -113 -126 -5 0 -9
21 -9 47 0 83 -56 163 -115 163 -8 0 -15 4 -15 9 0 8 67 73 138 134 37 31 37
32 16 98 -15 46 -28 60 -36 41 -1 -5 -41 -41 -88 -81 -46 -40 -100 -93 -119
-117 -18 -24 -35 -43 -37 -41 -2 2 3 28 11 58 15 55 49 208 59 267 7 40 -8 42
-55 5 -69 -54 -80 -76 -105 -211 -63 -339 -68 -370 -55 -386 15 -18 53 -7 91
28 66 60 118 69 162 29 21 -18 25 -79 6 -86 -7 -3 2 -6 20 -6 17 -1 32 -5 32
-9 0 -30 -203 -43 -265 -18 -71 30 -149 133 -165 216 -13 68 3 187 35 255 14
31 25 57 25 60 0 2 13 23 29 47 37 54 88 104 121 117 40 16 134 12 198 -7z
m-981 -1605 c78 -34 78 -34 85 -78 4 -24 16 -68 27 -98 11 -30 19 -56 17 -58
-2 -2 -21 13 -42 33 -46 44 -118 79 -194 96 -30 6 -56 12 -58 14 -5 3 72 124
80 124 3 0 41 -15 85 -33z m-357 -11 c0 -19 -4 -38 -10 -41 -6 -4 -10 10 -10
34 0 23 5 41 10 41 6 0 10 -15 10 -34z m-33 -153 c-2 -16 -4 -5 -4 22 0 28 2
40 4 28 2 -13 2 -35 0 -50z m151 -85 c6 -6 14 9 22 42 14 59 29 69 68 44 41
-27 142 -125 142 -139 0 -7 21 -40 47 -73 35 -47 55 -63 79 -68 41 -8 68 7 84
47 12 28 11 39 -4 81 -18 52 -22 69 -31 128 -8 51 7 16 44 -107 59 -194 146
-334 250 -405 43 -30 45 -31 30 -8 -8 14 -23 50 -32 80 -21 69 -59 251 -54
257 2 2 23 -26 47 -62 48 -74 92 -115 122 -115 20 0 20 1 5 18 -26 28 -21 30
35 16 62 -16 137 -17 233 -4 38 6 88 8 111 4 34 -5 42 -11 52 -38 7 -18 12
-42 12 -54 0 -20 -1 -20 -63 9 -76 35 -180 59 -262 59 -98 0 -96 -16 2 -23
145 -9 283 -53 368 -118 l40 -31 -36 35 c-36 34 -36 35 -18 58 10 13 19 29 19
35 0 25 25 33 69 21 l43 -12 -6 -58 c-6 -49 -15 -83 -41 -155 -3 -8 -36 10
-98 52 -111 77 -242 143 -304 152 -27 4 -62 2 -86 -6 -51 -15 -107 -55 -107
-77 0 -14 3 -13 23 4 12 11 32 26 44 32 21 11 21 10 16 -43 -10 -98 31 -163
120 -187 42 -11 94 -5 160 20 25 10 27 13 13 26 -33 33 9 59 55 34 16 -8 23
-7 32 5 11 15 21 11 90 -30 42 -25 77 -49 77 -53 0 -9 -30 -24 -125 -62 -87
-35 -73 -37 26 -4 40 14 79 23 85 21 6 -2 19 5 28 16 10 11 20 18 23 15 9 -10
-8 -47 -43 -88 -60 -72 -26 -56 46 21 38 41 69 70 70 64 0 -13 -97 -169 -142
-227 -18 -23 -63 -77 -101 -120 -39 -43 -67 -80 -65 -83 5 -5 84 52 122 88 12
11 34 29 50 41 28 20 27 17 -19 -69 -55 -101 -64 -116 -74 -109 -4 2 -34 -2
-67 -10 -42 -10 -126 -14 -289 -14 -274 -1 -440 11 -592 40 -104 21 -113 24
-123 49 -18 44 -99 118 -159 147 -30 14 -89 31 -131 37 l-75 12 -47 61 c-53
71 -75 145 -60 209 8 35 80 239 101 289 5 11 15 41 21 68 7 26 16 47 19 47 4
0 12 -14 19 -32 16 -44 23 -32 11 21 -5 24 -7 46 -5 49 3 3 25 1 48 -4 36 -8
42 -13 38 -29 -12 -48 -5 -121 15 -147 40 -54 117 -73 176 -42 l30 15 -23 19
c-21 17 -22 20 -7 35 13 13 20 14 45 4 16 -7 33 -11 37 -10 13 3 46 -41 56
-74 l9 -30 1 36 c1 39 -19 71 -89 138 -73 70 -178 111 -287 111 -29 0 -53 3
-53 8 0 4 9 31 20 61 12 29 20 61 18 70 -1 9 4 39 12 66 l15 50 7 -69 c3 -38
11 -73 16 -78z m867 68 c50 -9 133 -19 185 -23 l95 -8 28 -79 c15 -43 26 -80
24 -82 -2 -2 -25 4 -52 12 -107 33 -294 14 -358 -36 l-26 -21 -10 38 c-11 43
-27 128 -35 187 l-5 38 32 -5 c18 -3 73 -13 122 -21z m505 -69 c21 -48 35
-106 45 -190 l6 -57 -45 22 c-44 21 -45 23 -51 77 -4 31 -13 84 -21 119 -8 35
-14 65 -14 68 0 2 14 4 31 4 26 0 33 -6 49 -43z m-787 -85 c-4 -17 -11 -22
-24 -19 -12 3 -20 -2 -25 -15 -4 -13 -10 -16 -15 -11 -14 14 -21 123 -9 123 6
0 10 -15 10 -34 0 -19 5 -38 10 -41 6 -3 10 3 10 15 0 11 7 23 15 26 8 4 15
16 16 28 1 13 4 8 9 -14 5 -19 6 -45 3 -58z m707 -39 c-1 -24 -2 -26 -11 -10
-5 9 -7 22 -4 27 10 17 15 11 15 -17z m520 -125 c-61 -158 -133 -312 -150
-323 -17 -10 -6 21 40 120 40 85 130 309 130 323 0 13 24 34 28 23 2 -5 -20
-69 -48 -143z m170 140 c-1 -17 -39 -118 -39 -105 -1 30 21 107 30 107 5 0 9
-1 9 -2z m-485 -45 c-10 -55 -26 -77 -19 -28 6 48 11 65 20 65 3 0 3 -17 -1
-37z m-228 -45 c-3 -8 -6 -5 -6 6 -1 11 2 17 5 13 3 -3 4 -12 1 -19z m-1160
-9 c17 -17 4 -39 -22 -39 -27 0 -39 14 -31 35 6 18 37 20 53 4z m1588 -120
c-9 -57 -21 -108 -27 -114 -6 -7 -8 2 -4 25 3 19 8 58 11 85 7 55 25 119 31
112 3 -2 -3 -51 -11 -108z m-175 91 c0 -5 -2 -10 -4 -10 -3 0 -8 5 -11 10 -3
6 -1 10 4 10 6 0 11 -4 11 -10z m-49 -57 c-8 -15 -10 -15 -11 -2 0 17 10 32
18 25 2 -3 -1 -13 -7 -23z m904 -188 c-23 -158 -42 -252 -44 -214 -1 9 8 68
18 130 10 63 25 150 32 194 7 43 14 75 16 69 2 -5 -8 -86 -22 -179z m100 90
c-8 -27 -14 -41 -14 -29 -1 21 19 88 24 82 2 -2 -3 -25 -10 -53z m-1477 -37
c33 -33 -17 -78 -53 -48 -16 13 -20 42 -8 53 11 11 48 8 61 -5z m961 -69 c-7
-41 -18 -99 -25 -129 l-13 -55 4 62 c5 66 34 207 41 200 3 -2 -1 -37 -7 -78z
m-470 -25 c-25 -82 -30 -89 -57 -73 -20 13 -20 13 7 48 15 20 36 50 46 68 11
18 20 31 22 29 2 -2 -6 -34 -18 -72z m596 -51 c-42 -123 -102 -268 -123 -298
-17 -23 -17 -25 40 125 25 63 60 157 79 208 46 127 49 100 4 -35z m240 35
c-20 -93 -68 -244 -72 -231 -2 5 12 63 31 129 19 66 38 137 42 159 4 22 9 34
11 28 3 -7 -3 -46 -12 -85z m101 -39 c-18 -64 -41 -129 -50 -145 l-16 -29 7
30 c3 17 11 33 17 37 6 4 8 8 4 8 -4 0 -3 12 2 28 5 15 21 68 36 117 15 50 29
85 31 80 2 -6 -12 -63 -31 -126z m-2617 -256 c12 -11 12 -13 -2 -19 -21 -8
-51 22 -43 43 6 14 8 14 19 2 7 -8 18 -20 26 -26z m1931 -118 c-7 -22 -19 -48
-28 -59 -18 -19 -124 -76 -142 -76 -6 0 15 33 48 73 32 39 74 95 93 122 l34
50 3 -35 c2 -19 -2 -53 -8 -75z m-1860 49 c-40 -105 62 -184 141 -108 19 18
29 38 29 56 0 34 12 35 52 7 l29 -21 -20 -22 c-15 -16 -21 -36 -21 -67 0 -57
22 -89 61 -89 37 0 37 -15 -1 -35 -42 -22 -109 -19 -171 9 -63 28 -89 33 -189
41 -89 8 -120 29 -120 82 0 47 16 73 45 73 28 0 65 -32 65 -56 0 -30 -21 -54
-48 -55 -18 -1 -21 -3 -9 -6 10 -3 30 -2 43 1 58 15 46 120 -16 132 -16 4 -30
10 -30 14 0 24 92 68 147 69 20 1 21 -2 13 -25z m138 5 c32 -12 29 -54 -7 -90
-50 -49 -107 -34 -117 32 -5 29 -2 41 16 59 22 22 47 22 108 -1z m180 -150 c7
-13 11 -37 10 -54 -2 -24 -8 -31 -28 -33 -56 -6 -95 82 -54 123 14 14 19 14
38 2 11 -8 27 -25 34 -38z m342 -106 c0 -3 -6 -14 -14 -22 -8 -9 -18 -32 -23
-51 l-9 -35 -28 42 c-37 55 -30 73 29 73 25 0 45 -3 45 -7z m40 -113 c-14 -60
-29 -112 -33 -116 -3 -3 -38 1 -77 11 -65 16 -71 20 -66 39 3 11 9 38 12 59 8
48 20 54 38 20 8 -15 26 -39 42 -53 27 -25 28 -24 7 27 -4 11 -3 14 5 9 8 -4
12 0 12 11 0 24 57 103 74 103 10 0 6 -28 -14 -110z m73 88 c9 -37 11 -174 2
-189 -4 -8 7 0 26 17 43 38 159 126 159 119 0 -3 -5 -13 -10 -23 -6 -9 -23
-53 -39 -97 -33 -91 -21 -86 -149 -58 -67 14 -73 17 -68 37 3 11 16 65 28 119
22 95 40 121 51 75z m142 -9 c19 -19 19 -19 -5 -36 -14 -9 -43 -34 -64 -55
-21 -21 -39 -37 -40 -36 -1 2 0 38 2 81 l4 78 41 -6 c23 -4 51 -15 62 -26z
m-887 -9 c30 -8 42 -16 42 -29 0 -30 -12 -32 -36 -6 -16 17 -34 25 -58 25 -37
0 -58 16 -29 22 10 3 23 3 28 2 6 -2 29 -8 53 -14z m448 2 c-2 -4 -10 -46 -16
-92 -6 -47 -16 -91 -21 -100 -8 -12 -9 -11 -5 5 2 11 7 52 11 90 7 65 18 105
31 105 3 0 3 -4 0 -8z m-470 -43 c17 -14 18 -41 2 -57 -7 -7 -32 -13 -57 -14
-42 -1 -43 -2 -10 -5 66 -7 101 -73 46 -86 -31 -8 -106 8 -123 25 -18 18 -2
74 18 62 6 -4 4 3 -5 17 -20 28 -22 50 -4 68 15 15 111 9 133 -10z m409 -64
c-9 -86 -29 -102 -184 -154 -69 -22 -126 -39 -128 -37 -2 1 3 16 12 32 8 16
15 38 15 49 1 42 55 86 172 139 62 29 115 48 117 43 2 -4 0 -37 -4 -72z m-588
13 c-2 -13 -4 -3 -4 22 0 25 2 35 4 23 2 -13 2 -33 0 -45z m291 16 c16 -11 22
-24 20 -41 -4 -33 -27 -48 -61 -39 -31 7 -36 39 -11 74 18 26 23 27 52 6z
m-77 -69 c7 -19 20 -36 28 -38 9 -3 4 -5 -11 -6 -23 -1 -28 3 -28 23 0 14 -4
28 -10 31 -13 8 -13 25 -1 25 5 0 15 -16 22 -35z m1083 -72 c22 -60 41 -113
43 -119 3 -7 -18 -13 -53 -17 -31 -3 -64 -13 -74 -22 -18 -16 -19 -15 -31 23
-11 37 -9 45 20 103 17 35 34 80 37 101 4 21 10 38 13 38 4 0 24 -48 45 -107z
m-1307 -5 c-2 -18 -4 -6 -4 27 0 33 2 48 4 33 2 -15 2 -42 0 -60z m1128 25
c-9 -15 -13 -19 -10 -8 4 11 10 29 13 40 3 11 7 14 9 8 3 -7 -3 -24 -12 -40z
m-835 -10 c0 -4 -7 -27 -16 -50 -12 -31 -22 -43 -37 -43 -18 0 -19 2 -5 18 8
9 20 32 28 50 11 28 30 44 30 25z m-257 -17 c3 -8 0 -17 -7 -19 -10 -4 -12 1
-9 14 6 23 9 24 16 5z m207 5 c0 -5 -7 -12 -16 -15 -8 -3 -12 -11 -9 -16 8
-13 -13 -40 -31 -40 -8 0 -14 7 -14 15 0 8 8 15 18 15 13 0 14 2 4 9 -11 6
-10 11 3 25 18 17 45 22 45 7z m-95 -22 c12 -38 -10 -43 -46 -10 l-34 30 37 1
c29 0 38 -5 43 -21z m962 -11 c-3 -8 -6 -5 -6 6 -1 11 2 17 5 13 3 -3 4 -12 1
-19z m-1065 -38 c-2 -22 -6 -40 -8 -40 -2 0 -4 18 -4 40 0 22 3 40 8 40 4 0 6
-18 4 -40z m588 -3 c0 -28 -17 -47 -43 -47 -14 0 -17 5 -11 23 15 49 54 66 54
24z m463 8 c-3 -9 -8 -14 -10 -11 -3 3 -2 9 2 15 9 16 15 13 8 -4z m17 -68 c0
-25 -17 -47 -37 -47 -19 0 -16 47 5 59 26 16 32 13 32 -12z m253 -24 c20 -12
3 -21 -31 -16 -25 3 -50 -1 -70 -11 -35 -18 -52 -20 -52 -7 0 5 21 18 48 29
42 19 77 20 105 5z m-24 -39 c38 -8 65 -44 56 -73 -7 -24 -212 -152 -315 -197
-14 -6 -31 -19 -39 -28 -13 -15 -12 -18 7 -23 28 -7 29 -40 1 -48 -28 -9 -59
21 -59 56 0 38 58 148 94 179 53 45 130 100 171 120 46 23 43 22 84 14z m-277
-396 c-12 -12 -54 -7 -59 8 -2 6 10 8 33 6 23 -3 32 -8 26 -14z m-37 -20 c14
-6 24 -16 22 -22 -6 -19 -22 -15 -40 9 -20 28 -18 30 18 13z"/>
<path d="M1862 3150 c62 -11 181 -74 218 -117 17 -18 30 -29 30 -23 0 6 -22
33 -50 60 -57 55 -138 91 -203 89 l-42 -1 47 -8z"/>
<path d="M2120 2659 c0 -6 -7 -8 -17 -5 -9 4 -39 -1 -67 -11 -71 -24 -229 -25
-273 -1 -39 22 -50 10 -28 -31 45 -88 160 -141 306 -141 35 0 74 -12 146 -45
155 -70 224 -78 309 -37 48 23 41 45 -18 53 -53 8 -165 76 -240 145 -34 32
-55 44 -78 44 -30 0 -43 23 -17 33 7 3 5 6 -5 6 -10 1 -18 -4 -18 -10z"/>
<path d="M1961 2440 c-22 -9 -23 -14 -17 -57 6 -45 42 -129 60 -140 5 -3 6 -1
2 5 -10 16 59 89 92 97 l27 7 -35 14 c-19 8 -50 13 -70 12 -32 -4 -30 -5 19
-12 44 -7 50 -11 35 -19 -11 -5 -31 -21 -45 -34 l-26 -24 -23 56 c-12 31 -19
59 -15 63 3 4 28 7 54 6 53 0 135 -40 127 -61 -3 -7 1 -13 9 -13 21 0 45 -40
45 -75 0 -34 -23 -61 -75 -88 -16 -9 -26 -16 -22 -17 18 -1 87 42 97 59 23 44
0 132 -46 172 -51 45 -146 69 -193 49z"/>
</g>
</svg>
